<svg width="16" height="16" viewBox="0 0 1000 1000" xmlns="http://www.w3.org/2000/svg" class="icon">
    <g>
        <path id="svg_1" fill="#B686EF"
              d="m370,180.976l0,-62.976l-5.76,0c-20.032,0 -39.424,3.968 -58.176,11.84a149.12,149.12 0 0 0 -49.6,33.92a142.72,142.72 0 0 0 -31.552,48.192l0,0.064a226.688,226.688 0 0 0 -12.672,53.12l0,0.128a389.12,389.12 0 0 0 -1.536,55.232c0.768,18.56 1.152,37.12 1.152,55.616c0,12.992 -2.56,25.152 -7.488,36.608l0,0.064a96.256,96.256 0 0 1 -48.96,50.368a88.064,88.064 0 0 1 -35.712,7.36l-5.696,0l0,62.976l5.76,0c12.48,0 24.32,2.56 35.584,7.744l0.064,0.064c11.392,4.992 21.056,11.776 29.12,20.352l0.128,0.128c8.32,8.32 14.912,18.24 19.648,29.76l0.064,0.128c4.992,11.52 7.488,23.552 7.488,36.224c0,18.56 -0.384,37.12 -1.152,55.616c-0.768,18.944 -0.256,37.44 1.536,55.68l0,0.064c2.112,18.112 6.336,35.712 12.608,52.736l0,0.064c6.784,17.472 17.344,33.536 31.616,48.192c14.272,14.72 30.848,26.048 49.6,33.92c18.752,7.872 38.144,11.84 58.24,11.84l5.696,0l0,-62.976l-5.76,0c-12.736,0 -24.768,-2.432 -35.968,-7.36a103.232,103.232 0 0 1 -29.248,-20.48a106.176,106.176 0 0 1 -19.776,-29.888c-4.736,-11.52 -7.04,-23.68 -7.04,-36.672c0,-14.592 0.192,-28.992 0.704,-43.008c0.512,-14.592 0.512,-28.8 0,-42.56a296.896,296.896 0 0 0 -3.52,-40.96a171.648,171.648 0 0 0 -10.752,-38.976a146.176,146.176 0 0 0 -47.232,-61.12a146.176,146.176 0 0 0 47.232,-61.12c5.12,-12.288 8.64,-25.152 10.752,-38.528c2.112,-13.44 3.264,-27.072 3.52,-40.96c0.512,-14.08 0.512,-28.288 0,-42.624c-0.512,-14.336 -0.768,-28.8 -0.768,-43.392a94.08,94.08 0 0 1 56.128,-86.656a85.12,85.12 0 0 1 36.032,-7.744l5.696,0zm256,642.048l0,62.976l5.76,0c20.032,0 39.424,-3.968 58.176,-11.84c18.752,-7.872 35.328,-19.2 49.6,-33.92c14.272,-14.72 24.832,-30.72 31.552,-48.192l0,-0.064c6.4,-17.024 10.56,-34.752 12.672,-53.12l0,-0.128c1.792,-17.92 2.304,-36.288 1.536,-55.232c-0.768,-18.56 -1.152,-37.12 -1.152,-55.616c0,-12.992 2.56,-25.152 7.488,-36.608l0,-0.064a96.256,96.256 0 0 1 48.96,-50.368c11.264,-4.928 23.168,-7.36 35.712,-7.36l5.696,0l0,-62.976l-5.76,0c-12.48,0 -24.32,-2.56 -35.584,-7.744l-0.064,-0.064a88.064,88.064 0 0 1 -29.12,-20.352l-0.128,-0.128a90.496,90.496 0 0 1 -19.648,-29.76l-0.064,-0.128a89.92,89.92 0 0 1 -7.488,-36.224c0,-18.56 0.384,-37.12 1.152,-55.616a396.16,396.16 0 0 0 -1.536,-55.68l0,-0.064a226.688,226.688 0 0 0 -12.608,-52.736l0,-0.064a142.72,142.72 0 0 0 -31.616,-48.192a149.12,149.12 0 0 0 -49.6,-33.92a148.8,148.8 0 0 0 -58.24,-11.84l-5.696,0l0,62.976l5.76,0c12.8,0 24.704,2.432 35.968,7.36c11.136,5.248 20.864,12.032 29.248,20.48c8.128,8.576 14.72,18.56 19.776,29.888c4.736,11.52 7.04,23.68 7.04,36.672c0,14.592 -0.192,28.928 -0.704,43.008c-0.512,14.592 -0.512,28.8 0,42.56c0.256,14.208 1.408,27.84 3.52,40.96c2.112,13.696 5.696,26.624 10.752,38.976a146.048,146.048 0 0 0 47.232,61.12a146.048,146.048 0 0 0 -47.232,61.12a172.8,172.8 0 0 0 -10.752,38.528c-2.112,13.44 -3.264,27.072 -3.52,40.96c-0.512,14.08 -0.512,28.288 0,42.624c0.512,14.336 0.768,28.8 0.768,43.392a94.08,94.08 0 0 1 -26.88,66.24a93.824,93.824 0 0 1 -29.248,20.416a85.12,85.12 0 0 1 -36.032,7.744l-5.696,0z"/>
        <text stroke="null"
              transform="matrix(4.098953723907471,0,0,3.9745690822601314,-1330.4069020748138,-2127.4588438160135) "
              xml:space="preserve" text-anchor="start" font-family="Helvetica, Arial, sans-serif" font-size="50"
              id="svg_2" y="720" x="394" fill-opacity="null" stroke-opacity="null" stroke-width="0"
              fill="#B686EF">A r b</text>
    </g>
</svg>
