<?xml version="1.0" standalone="no"?><!DOCTYPE svg PUBLIC "-//W3C//DTD SVG 1.1//EN"
    "http://www.w3.org/Graphics/SVG/1.1/DTD/svg11.dtd">
<svg class="icon" viewBox="0 0 1024 1024" version="1.1" xmlns="http://www.w3.org/2000/svg"
     width="13" height="13">
    <path
        d="M402.058248 463.292769H825.427829v39.531263H402.058248zM402.058248 366.775744h243.011201v39.531263H402.058248zM402.058248 559.812863H825.427829v39.382884H402.058248zM402.058248 656.328864H825.427829v39.382884H402.058248zM402.058248 752.696486H825.427829v39.532286H402.058248zM402.058248 849.217604H825.427829v39.382884H402.058248z"
        fill="#ABB6BD"/>
    <path
        d="M334.034105 231.771228h559.56113c10.894096 0 19.693488 8.799392 19.693489 19.688371v713.963401c0 10.891026-8.799392 19.694512-19.693489 19.694512H334.034105c-10.894096 0-19.693488-8.804509-19.693489-19.694512V251.459599c0-10.890003 8.799392-19.688372 19.693489-19.688371z m539.866619 39.38186H353.722477v674.58154h520.178247V271.153088z"
        fill="#ABB6BD"/>
    <path
        d="M334.034105 888.601511c10.884886 0 19.688372-8.804509 19.688372-19.694512s-8.804509-19.688372-19.688372-19.688372h-76.827629V174.786489h520.178246v73.542823c0 10.891026 8.808602 19.688372 19.694512 19.688372 10.894096 0 19.693488-8.798369 19.693489-19.688372v-93.386737c0-10.890003-8.799392-19.693488-19.693489-19.693488H237.512987c-10.890003 0-19.688372 8.804509-19.688372 19.693488v713.963401c0 10.891026 8.799392 19.694512 19.688372 19.694512h96.521118z"
        fill="#ABB6BD"/>
    <path
        d="M209.914474 792.228772c10.891026 0 19.694512-8.799392 19.694512-19.688371 0-10.891026-8.804509-19.843914-19.694512-19.843915h-59.671935V78.265372h520.183363v63.701706c0 10.890003 8.799392 19.688372 19.693489 19.688372 10.88591 0 19.694512-8.799392 19.694512-19.688372V58.575976c0-10.890003-8.808602-19.693488-19.694512-19.693488H130.554167c-10.890003 0-19.843914 8.804509-19.843914 19.693488v713.964425c0 10.890003 8.953911 19.688372 19.843914 19.688371h79.360307z"
        fill="#ABB6BD"/>
</svg>
